<?xml version="1.0" encoding="UTF-8"?>
<svg id="uuid-bcac1964-3b32-4ae6-a4ec-1b07fabd9fe6" data-name="Ebene 1" xmlns="http://www.w3.org/2000/svg" viewBox="0 0 940.13 163.97">
  <defs>
    <style>
      .uuid-05a374cf-8625-4cdb-a850-bb23f43af6f7 {
        fill: #6cc18e;
        stroke: #6cc18e;
        stroke-miterlimit: 10;
        stroke-width: 13px;
      }
    </style>
  </defs>
  <path class="uuid-05a374cf-8625-4cdb-a850-bb23f43af6f7" d="m11.41,116.95h119.54c9.12,0,16.52,7.4,16.52,16.52,0,4.56-1.85,8.69-4.84,11.68-2.99,2.99-7.13,4.84-11.68,4.84H11.7c2.72-4.76,4.28-10.33,4.28-16.27s-1.67-11.9-4.56-16.78Z"/>
  <path class="uuid-05a374cf-8625-4cdb-a850-bb23f43af6f7" d="m15.48,6.5h119.54c9.12,0,16.52,7.4,16.52,16.52,0,4.56-1.85,8.69-4.84,11.68-2.99,2.99-7.13,4.84-11.68,4.84H15.77c2.72-4.76,4.28-10.33,4.28-16.27s-1.67-11.9-4.56-16.78Z"/>
  <path class="uuid-05a374cf-8625-4cdb-a850-bb23f43af6f7" d="m29.25,61.73h119.54c9.12,0,16.52,7.4,16.52,16.52,0,4.56-1.85,8.69-4.84,11.68-2.99,2.99-7.13,4.84-11.68,4.84H29.54c2.72-4.76,4.28-10.33,4.28-16.27s-1.67-11.9-4.56-16.78Z"/>
  <g>
    <path d="m240.17,104.33c0-12.56-8.33-14.81-24.6-19.18-15.21-3.97-24.33-8.46-24.33-25.26,0-13.36,8.6-26.98,27.24-26.98,10.05,0,14.94,3.97,18.12,3.97,1.85,0,2.38-1.06,3.31-2.78h3.97l.93,26.98h-5.03c-3.83-16.27-10.45-21.82-21.56-21.82-10.32,0-17.19,5.55-17.19,14.28,0,10.58,8.46,14.02,19.84,17.19,14.15,3.84,28.7,7.8,28.7,27.91,0,16.93-10.32,29.76-29.89,29.76-11.9,0-16.8-3.84-20.76-3.84-1.85,0-2.25,1.59-3.31,4.1h-4.23l-1.19-30.55h5.03c3.83,14.28,8.2,23.8,24.07,23.8,13.36,0,20.9-6.61,20.9-17.59Z"/>
    <path d="m308.81,126.94l-1.06-10.71c-3.57,6.22-10.58,12.17-21.69,12.17-13.49,0-19.71-7.01-19.71-22.48v-38.48l-8.33-.93v-5.29h20.9v44.83c0,8.73,2.12,13.49,11.37,13.49s16.53-6.35,16.53-18.38v-33.72l-8.73-.93v-5.29h21.16v59.51l8.33.93v5.29h-18.78Z"/>
    <path d="m354.96,61.21l.93,11.11c3.57-6.61,10.18-12.56,21.95-12.56,9.79,0,15.21,4.1,17.19,12.7,3.44-6.35,10.32-12.7,21.16-12.7,13.49,0,18.78,7.01,18.78,22.48v38.48l8.46.93v5.29h-29.23v-5.29l8.33-.93v-38.35c0-10.98-3.57-13.75-10.98-13.75-10.05,0-15.61,8.07-15.61,17.32v34.78l8.46.93v5.29h-29.23v-5.29l8.33-.93v-39.28c0-9.52-3.31-12.83-10.71-12.83-9.26,0-15.74,6.61-15.74,17.06v35.05l8.6.93v5.29h-29.49v-5.29l8.33-.93v-53.3l-8.33-.93v-5.29h18.78Z"/>
    <path d="m469.88,61.21l.93,11.11c3.57-6.61,10.18-12.56,21.95-12.56,9.79,0,15.21,4.1,17.19,12.7,3.44-6.35,10.32-12.7,21.16-12.7,13.49,0,18.78,7.01,18.78,22.48v38.48l8.46.93v5.29h-29.23v-5.29l8.33-.93v-38.35c0-10.98-3.57-13.75-10.98-13.75-10.05,0-15.6,8.07-15.6,17.32v34.78l8.46.93v5.29h-29.23v-5.29l8.33-.93v-39.28c0-9.52-3.31-12.83-10.71-12.83-9.26,0-15.74,6.61-15.74,17.06v35.05l8.6.93v5.29h-29.49v-5.29l8.33-.93v-53.3l-8.33-.93v-5.29h18.78Z"/>
    <path d="m603.05,92.29v-8.99c0-11.51-2.64-17.99-12.7-17.99-3.84,0-10.58.53-10.58,5.55,0,.53.13,1.06.26,1.72h4.23c.4,1.59.79,3.31.79,4.76,0,4.5-3.17,7.01-7.41,7.01-4.76,0-7.54-2.91-7.54-8.2,0-9.65,9.39-16.4,22.22-16.4,16.13,0,23.28,6.48,23.28,25v30.15c0,5.69.79,7.41,3.83,7.41,1.46,0,2.78-.26,4.23-.79l1.19,4.5c-2.12,1.19-5.55,2.25-9.52,2.25-6.74,0-10.45-2.38-11.5-9.26-3.84,5.95-10.84,9.39-18.91,9.39-9.79,0-17.99-4.5-17.99-16.93,0-14.42,11.37-19.18,27.24-19.18h8.86Zm0,16.4v-10.84h-7.01c-11.51,0-15.34,5.03-15.34,12.83,0,6.61,2.38,10.45,8.99,10.45s13.36-4.36,13.36-12.43Z"/>
    <path d="m665.99,121.65v5.29h-34.65v-5.29l8.33-.93v-53.3l-8.33-.93v-5.29h18.91l1.06,10.45c3.7-6.88,9.12-11.9,18.65-11.9,7.14,0,13.22,4.23,13.22,12.3,0,7.27-3.7,10.32-9.12,10.32s-8.46-3.04-8.33-8.73l4.1-1.72c.13-.53.26-1.06.26-1.59,0-2.38-1.85-3.17-4.23-3.17-6.74,0-13.62,9.12-13.62,16.93v36.63l13.75.93Z"/>
    <path d="m685.83,61.21h28.57v5.29l-8.86.53,15.08,44.83,14.94-44.83-8.73-.53v-5.29h22.88v5.29l-6.48.53-22.61,64.67c-5.16,14.68-7.67,23.14-20.23,23.14-7.54,0-14.55-3.97-14.55-12.43,0-4.89,2.91-9.12,8.46-9.12,4.23,0,7.27,2.65,7.41,8.6l-4.89,2.78c-.53,3.31,1.59,4.5,4.89,4.5,5.29,0,7.01-3.44,12.56-20.9l-22.75-61.23-5.69-.53v-5.29Z"/>
    <path d="m792.95,34.37v5.16l-13.49,1.19v80.14h7.8c19.31,0,25.92-3.44,28.96-23.54h4.89l-1.19,29.62h-64.27v-5.16l10.05-1.06V40.71l-10.05-1.06v-5.29h37.29Z"/>
    <path d="m852.19,61.21v59.51l9.79.93v5.29h-31.87v-5.29l9.52-.93v-53.3l-9.52-.93v-5.29h22.09Zm-7.8-30.68c4.76,0,8.33,2.12,8.33,8.07,0,5.16-2.91,8.07-8.2,8.07-6.08,0-8.2-3.57-8.2-7.94,0-4.63,2.51-8.2,8.07-8.2Z"/>
    <path d="m877.05,128.26V34.63l-8.33-.93v-5.16h20.76v42.05c3.44-5.69,10.18-10.84,20.63-10.84,15.74,0,24.33,11.37,24.33,33.72,0,19.71-8.73,34.91-28.57,34.91-8.99,0-14.81-2.78-19.71-7.27l-5.16,7.14h-3.97Zm12.43-42.72v19.44c0,9.92,7.27,16.8,16.13,16.8,11.77,0,14.94-9.52,14.94-27.24s-2.91-26.58-14.68-26.58c-8.6,0-16.4,6.08-16.4,17.59Z"/>
  </g>
</svg>